<svg xmlns="http://www.w3.org/2000/svg" xmlns:xlink="http://www.w3.org/1999/xlink" viewBox="0 0 1454.87 905.81"><defs><style>.cls-1{fill:none;}.cls-2{font-size:135.64px;font-family:BrandonGrotesque-Black, Brandon Grotesque;font-weight:800;letter-spacing:0.2em;}.cls-2,.cls-7{fill:#fff;}.cls-3{letter-spacing:0.2em;}.cls-4{letter-spacing:0.2em;}.cls-5{fill:#7c1d10;}.cls-6{clip-path:url(#clip-path);}.cls-8{fill:#fab216;}.cls-9{fill:#e8ab0f;}</style><clipPath id="clip-path" transform="translate(0 -30.19)"><rect class="cls-1" x="463.12" width="501.49" height="531.42"/></clipPath></defs><title>Recurso 4</title><g id="Capa_2" data-name="Capa 2"><g id="Capa_1-2" data-name="Capa 1"><text class="cls-2" transform="translate(0 852.91)">BIG<tspan class="cls-3" x="304.38" y="0">O</tspan><tspan class="cls-4" x="437.98" y="0">TE DORADO</tspan></text><ellipse class="cls-5" cx="721.35" cy="323.29" rx="343.73" ry="323.29"/><g class="cls-6"><path class="cls-7" d="M886,556.2V256.81a60.21,60.21,0,0,1-50.4-9.64,95.78,95.78,0,0,1-63.48,24.24,94.45,94.45,0,0,1-51.09-14.86,78,78,0,0,1-98.75,3.95A74.69,74.69,0,0,1,548,265.58V532.2l13.06,18,5.93-5.42L717.37,492c-4.94,13.06,33.56,18.12,47.52,18.12l60.08,30c14,0,39.16,29.65,34.22,16.59Z" transform="translate(0 -30.19)"/><polygon class="cls-8" points="571.73 742.29 558.33 777.71 875.72 777.71 862.33 742.29 571.73 742.29"/><path class="cls-9" d="M789.85,355.74v34c0,9.15-6.69,17.32-15.8,18.19a17.53,17.53,0,0,1-19.24-17.44V355.74A29.72,29.72,0,0,0,725.1,326H575.16V514.34l230-5.14,56.14,18.49L858.89,326H819.56A29.72,29.72,0,0,0,789.85,355.74Z" transform="translate(0 -30.19)"/><path class="cls-7" d="M871.26,144.38a50.27,50.27,0,0,0-17.54,3.2A85.29,85.29,0,0,0,719,106a64.87,64.87,0,0,0-118,27.22,64.92,64.92,0,1,0,21.72,111.08,67.79,67.79,0,0,0,97.27-4.17,85,85,0,0,0,115.22-10,50.48,50.48,0,1,0,36.1-85.77Z" transform="translate(0 -30.19)"/><circle class="cls-7" cx="638.87" cy="681.45" r="9.77"/><path class="cls-7" d="M738.29,617.31a9.78,9.78,0,1,1-9.77-9.78A9.77,9.77,0,0,1,738.29,617.31Z" transform="translate(0 -30.19)"/><path class="cls-7" d="M814.08,550.25a18.83,18.83,0,1,1-18.83-18.83A18.83,18.83,0,0,1,814.08,550.25Z" transform="translate(0 -30.19)"/><path class="cls-7" d="M654.1,565.42a18.83,18.83,0,1,1-18.83-18.82A18.83,18.83,0,0,1,654.1,565.42Z" transform="translate(0 -30.19)"/><path class="cls-7" d="M823.35,677.14a18.83,18.83,0,1,1-18.82-18.83A18.83,18.83,0,0,1,823.35,677.14Z" transform="translate(0 -30.19)"/></g><path class="cls-7" d="M948.28,491.4c10.19,16.56,6.31,40.12-14.09,45.21-53,13.25-102.23-69.14-153-82.21-34.44-8.88-53.69,11.65-63.87,30.79-10.18-19.14-29.43-39.67-63.87-30.79-50.72,13.07-99.93,95.46-153,82.21-20.39-5.09-24.27-28.65-14.08-45.21-25.25,3.19-25,55.27,0,75.14,38.12,30.25,94.93,21.61,139.36.64,33.75-15.93,56.45-32.07,73.58-42.55,6.74-4.12,12.62-7.37,18-9.38,18.91,7.1,44.51,29.72,91.54,51.93,44.44,21,101.25,29.61,139.37-.64C973.32,546.67,973.53,494.59,948.28,491.4Z" transform="translate(0 -30.19)"/></g></g></svg>